<svg width="46" height="65" viewBox="0 0 46 65" fill="none" xmlns="http://www.w3.org/2000/svg">
<path d="M23.5 32.25V0.5C21.6464 21.8572 18.7119 31.5464 0.5 32.25H23.5Z" fill="#EEFAA3"/>
<path d="M23.5 64V32.25H0.5C17.5914 35.0262 22.1475 42.549 23.5 64Z" fill="#EEFAA3"/>
<path d="M23.5 0.5V32.25H45C28.384 31.1554 25.3321 21.9267 23.5 0.5Z" fill="#EEFAA3"/>
<path d="M23.5 32.25V64C25.8034 41.0081 30.8511 34.6485 45 32.25H23.5Z" fill="#EEFAA3"/>
<path d="M23.5 0.5C23.5 12.8991 23.5 32.25 23.5 32.25M23.5 0.5C21.6464 21.8572 18.7119 31.5464 0.5 32.25M23.5 0.5C25.3321 21.9267 28.384 31.1554 45 32.25M23.5 0.5V32.25M23.5 64V32.25M23.5 64C25.8034 41.0081 30.8511 34.6485 45 32.25M23.5 64C22.1475 42.549 17.5914 35.0262 0.5 32.25M23.5 32.25H0.5M23.5 32.25H45" stroke="#EEFAA3"/>
</svg>
